<svg viewBox="0 0 252.667 252.667" xml:space="preserve" width="512" height="512" xmlns:xlink="http://www.w3.org/1999/xlink" xmlns="http://www.w3.org/2000/svg"><defs><linearGradient id="a"><stop style="stop-color:#57bea2;stop-opacity:1" offset="0"/><stop style="stop-color:#f0f;stop-opacity:1" offset="1"/></linearGradient><linearGradient xlink:href="#a" id="b" x1="155.02" y1="89.848" x2="240.307" y2="401.078" gradientUnits="userSpaceOnUse"/></defs><path style="display:inline;fill:url(#b);fill-opacity:1" d="M281.098 88.894a126.333 126.333 0 0 1-77.988 116.717 126.333 126.333 0 0 1-137.676-27.386l89.33-89.33z" transform="rotate(15)"/><path style="display:inline;fill:#666" d="M122.328-146.478a126.333 126.333 0 0 1-89.33 89.33A126.333 126.333 0 0 1-89.031-89.843L.3-179.175z" transform="rotate(135)"/><path style="display:inline;fill:#f9f9f9" d="M-.575 126.484A126.333 126.333 0 0 1-63.742 235.89a126.333 126.333 0 0 1-126.333 0l63.167-109.407z" transform="rotate(-90)"/></svg>