<?xml version="1.0" encoding="UTF-8" standalone="no"?>
<!-- Generator: Adobe Illustrator 24.1.3, SVG Export Plug-In . SVG Version: 6.00 Build 0)  -->

<svg
   version="1.1"
   id="Layer_1"
   x="0px"
   y="0px"
   viewBox="0 0 221 45.500001"
   xml:space="preserve"
   width="221"
   height="45.5"
   xmlns="http://www.w3.org/2000/svg"
   xmlns:svg="http://www.w3.org/2000/svg"
   xmlns:rdf="http://www.w3.org/1999/02/22-rdf-syntax-ns#"
   xmlns:cc="http://creativecommons.org/ns#"
   xmlns:dc="http://purl.org/dc/elements/1.1/"><metadata
     id="metadata33"><rdf:RDF><cc:Work
         rdf:about=""><dc:format>image/svg+xml</dc:format><dc:type
           rdf:resource="http://purl.org/dc/dcmitype/StillImage" /></cc:Work></rdf:RDF></metadata><defs
     id="defs31" /><style
     type="text/css"
     id="style2">
	.st0{fill:#4D5469;}
</style><g
     id="g26"
     transform="translate(-31.3,-48.1)"><path
       class="st0"
       d="m 56.5,84.7 v 7.1 c -2.6,1.1 -5.7,1.6 -8.8,1.6 C 41.3,93.4 37,89 37,82.5 V 65.2 H 31.3 V 57.8 H 37 v -9.7 h 8.8 v 9.7 H 56 v 7.4 H 45.7 v 15.4 c 0,3.1 1.9,5.2 4.8,5.2 2,0 4,-0.3 6,-1.1 z"
       id="path4"
       style="fill:#ffffff" /><path
       class="st0"
       d="M 93.5,71.4 V 93.2 H 85 l -0.2,-4.9 c -2.3,3.1 -6.3,5.1 -10.6,5.1 -7.2,0 -12.1,-4.3 -12.1,-10.7 0,-6.7 5.9,-11 14.8,-11 2.4,0 5,0.3 7.7,0.8 v -0.6 c 0,-4.6 -3.1,-7.4 -8.4,-7.4 -3.3,0 -5.9,1 -8.1,2.8 L 64.4,62 c 3.7,-3 8.1,-4.5 14.2,-4.5 8.9,0 14.9,5.3 14.9,13.9 z m -8.8,6.9 c -2.3,-0.4 -4.6,-0.7 -6.6,-0.7 -4.1,0 -6.8,1.9 -6.8,4.9 0,2.8 1.9,4.7 5.4,4.7 4.2,0 8,-3.2 8,-8.9 z"
       id="path6"
       style="fill:#ffffff" /><path
       class="st0"
       d="m 155,58.1 h 8.8 V 93.2 H 155 Z"
       id="path8"
       style="fill:#ffffff" /><path
       class="st0"
       d="m 155,48.2 h 8.8 v 5.1 H 155 Z"
       id="path10"
       style="fill:#ffffff" /><path
       class="st0"
       d="m 169.5,75.5 c 0,-10.7 7.5,-17.9 18.7,-17.9 4.6,0 8.7,1.5 11.9,4 l -5,5.9 c -1.8,-1.5 -3.9,-2.4 -6.8,-2.4 -5.8,0 -9.7,4.2 -9.7,10.5 0,6.3 3.9,10.5 9.8,10.5 3.2,0 5.9,-1 7.9,-3.1 l 5,5.8 c -3.3,3.3 -8,4.8 -13.2,4.8 C 177,93.5 169.5,86.3 169.5,75.5 Z"
       id="path12"
       style="fill:#ffffff" /><path
       class="st0"
       d="m 237.8,71 v 22.2 h -8.4 l -0.2,-5.4 c -2.3,3.6 -6.3,5.6 -10.6,5.6 -7.2,0 -12.1,-4.3 -12.1,-10.7 0,-6.7 5.9,-11 14.8,-11 2.4,0 5,0.3 7.7,0.8 v -0.6 c 0,-4.6 -3.1,-7.4 -8.4,-7.4 -3.3,0 -5.9,1 -8.1,2.8 l -3.8,-5.1 c 3.7,-3 8.1,-4.5 14.2,-4.5 8.9,-0.2 14.9,5.1 14.9,13.3 z m -8.8,7.3 c -2.3,-0.4 -4.6,-0.7 -6.6,-0.7 -4.1,0 -6.8,1.9 -6.8,4.9 0,2.8 1.9,4.7 5.4,4.7 4.1,0 8,-3.2 8,-8.9 z"
       id="path14"
       style="fill:#ffffff" /><path
       class="st0"
       d="m 243.5,48.2 h 8.8 v 45 h -8.8 z"
       id="path16"
       style="fill:#ffffff" /><polygon
       class="st0"
       points="111.3,74.2 124.5,89.2 124.2,60.5 "
       id="polygon18"
       style="fill:#ffffff" /><polygon
       class="st0"
       points="100.2,57.8 100.2,70.7 102.8,70.7 114.2,57.8 "
       id="polygon20"
       style="fill:#ffffff" /><polygon
       class="st0"
       points="101.7,93.1 116.8,93.1 104.1,77.9 101.7,77.9 "
       id="polygon22"
       style="fill:#ffffff" /><path
       class="st0"
       d="m 143.4,85.8 c -2.8,0 -4.8,-2.1 -4.8,-5.2 V 65.2 h 10.3 v -7.4 h -10.3 v -9.7 h -8.8 v 9.7 h -3.2 l -2.5,2.7 v 4.7 h 5.7 v 17.2 c 0,6.5 4.3,10.9 10.7,10.9 3.1,0 6.2,-0.5 8.8,-1.6 v -7.1 c -1.9,0.9 -3.9,1.2 -5.9,1.2 z"
       id="path24"
       style="fill:#ffffff" /></g></svg>
