<?xml version="1.0" encoding="UTF-8" standalone="no"?>
<!-- Generator: Adobe Illustrator 24.1.3, SVG Export Plug-In . SVG Version: 6.00 Build 0)  -->

<svg
   version="1.1"
   id="Layer_1"
   x="0px"
   y="0px"
   viewBox="0 0 517.13427 46.039704"
   xml:space="preserve"
   width="517.13428"
   height="46.039703"
   xmlns="http://www.w3.org/2000/svg"
   xmlns:svg="http://www.w3.org/2000/svg"
   xmlns:rdf="http://www.w3.org/1999/02/22-rdf-syntax-ns#"
   xmlns:cc="http://creativecommons.org/ns#"
   xmlns:dc="http://purl.org/dc/elements/1.1/"><metadata
     id="metadata33"><rdf:RDF><cc:Work
         rdf:about=""><dc:format>image/svg+xml</dc:format><dc:type
           rdf:resource="http://purl.org/dc/dcmitype/StillImage" /></cc:Work></rdf:RDF></metadata><defs
     id="defs31" /><style
     type="text/css"
     id="style2">
	.st0{fill:#4D5469;}
</style><path
     id="path685"
     style="font-size:57.0886px;font-family:'Bw Modelica';-inkscape-font-specification:'Bw Modelica, Bold';fill:#cccccc;stroke-width:4.00496;stroke-linecap:square;stroke-linejoin:round;paint-order:stroke fill markers;stop-color:#000000;font-weight:bold"
     d="m 503.94432,45.5 h 8.04949 V 0 h -6.10848 l -14.15797,10.447214 3.9962,5.70886 8.22076,-5.823037 z m -12.38825,0 L 475.0162,21.950675 490.32633,0 H 480.30404 L 470.22025,15.187162 460.13647,0 h -10.0223 L 465.42431,21.950675 448.94593,45.5 h 10.0223 L 470.22025,28.652703 481.53376,45.5 Z M 421.28004,13.613128 c -5.36633,0 -9.24836,1.313037 -12.5595,3.996202 l 3.36823,4.567088 c 1.94101,-1.598481 4.28165,-2.45481 7.19317,-2.45481 4.68126,0 7.42151,2.45481 7.42151,6.565189 v 0.570886 c -2.34063,-0.456709 -4.68126,-0.685063 -6.79354,-0.685063 -7.87823,0 -13.13038,3.882024 -13.13038,9.819239 0,5.70886 4.28165,9.533796 10.67557,9.533796 3.76785,0 7.30734,-1.769746 9.36253,-4.966708 L 426.9889,45.5 h 7.4786 V 25.601734 c 0,-7.250253 -5.30924,-11.988606 -13.18746,-11.988606 z m -1.59848,26.374933 c -3.13988,0 -4.79545,-1.655569 -4.79545,-4.167468 0,-2.626075 2.34064,-4.338734 5.99431,-4.338734 1.76974,0 3.82493,0.228355 5.82303,0.627975 -0.0571,5.023797 -3.42531,7.878227 -7.02189,7.878227 z M 393.36376,45.5 h 7.76405 V 0 h -7.76405 z M 377.66439,14.184014 V 32.2811 c 0,3.939113 -2.62608,6.565189 -6.56519,6.565189 -3.99621,0 -6.67937,-2.626076 -6.67937,-6.565189 V 14.184014 h -7.76405 v 19.295947 c 0,7.250252 4.73835,12.045694 11.70316,12.045694 3.88203,0 7.25026,-1.484303 9.47671,-4.338733 L 377.94983,45.5 h 7.4786 V 14.184014 Z m -41.44635,-0.570886 c -4.68126,0 -8.04949,1.883923 -10.21886,5.023796 V 0 h -7.76405 v 45.5 h 7.47861 l 0.17127,-5.169407 c 2.16936,3.25405 5.59468,5.195062 10.33303,5.195062 8.27785,0 14.72886,-6.336834 14.72886,-15.813542 0,-9.647974 -6.45101,-16.098985 -14.72886,-16.098985 z m -1.76974,25.233161 c -5.08089,0 -8.44912,-3.710759 -8.44912,-9.305442 0,-5.537594 3.36823,-9.305442 8.44912,-9.305442 5.02379,0 8.44911,3.767848 8.44911,9.362531 0,5.537594 -3.42532,9.248353 -8.44911,9.248353 z m -22.15036,-9.762151 c 0,-9.305442 -6.16556,-15.47101 -15.35683,-15.47101 -9.24835,0 -15.35683,6.451011 -15.35683,16.156073 0,9.476708 6.27974,15.756454 15.69936,15.756454 5.82304,0 10.67557,-2.626075 13.41582,-6.736455 l -5.9943,-3.025695 c -1.82683,2.226455 -4.39582,3.65367 -7.53569,3.65367 -4.51,0 -6.79355,-2.740253 -7.36443,-7.078987 h 22.26455 c 0.11418,-0.913417 0.22835,-2.169366 0.22835,-3.25405 z m -15.35683,-9.36253 c 4.16747,0 6.62228,2.683164 7.19316,7.364429 h -14.32923 c 0.62797,-4.681265 3.02569,-7.364429 7.13607,-7.364429 z M 231.95665,45.5 h 8.66961 L 240.50328,14.69527 269.15598,45.5 h 5.34932 V 0 h -8.66959 L 266.02017,30.80473 237.36747,0 h -5.41082 z M 106.95952,38.025655 c -2.8,0 -4.8,-2.1 -4.8,-5.2 v -15.4 h 10.3 v -7.4 h -10.3 V -0.51404802 h -8.8 V 10.025655 h -3.2 l -2.5,2.7 v 4.7 h 5.7 v 17.2 c 0,6.5 4.3,10.9 10.7,10.9 3.1,0 6.2,-0.5 8.8,-1.6 v -7.1 c -1.9,0.9 -3.9,1.2 -5.9,1.2 z m -39.3,-7.7 h -2.4 v 15.2 h 15.1 z m -3.9,-7.4 h 2.6 l 11.4,-12.9 h -14 z m 24,-10.2 -12.9,13.7 13.2,15 z m 119.3,-13.13970302 h 8.8 V 45.525655 h -8.8 z m -5.7,23.53970302 v 22.4 h -8.4 l -0.2,-5.6 c -2.3,3.6 -6.3,5.6 -10.6,5.6 -7.2,0 -12.1,-4.3 -12.1,-10.7 0,-6.7 5.9,-11 14.8,-11 2.4,0 5,0.3 7.7,0.8 v -0.6 c 0,-4.6 -3.1,-7.4 -8.4,-7.4 -3.3,0 -5.9,1 -8.1,2.8 l -3.8,-5.1 c 3.7,-3 8.1,-4.5 14.2,-4.5 8.9,-0.2 14.9,5.1 14.9,13.3 z m -8.8,7.3 c -2.3,-0.4 -4.6,-0.7 -6.6,-0.7 -4.1,0 -6.8,1.9 -6.8,4.9 0,2.8 1.9,4.7 5.4,4.7 4.1,0 8,-3.2 8,-8.9 z m -59.5,-3 c 0,-10.7 7.5,-17.9 18.7,-17.9 4.6,0 8.7,1.5 11.9,4 l -5,5.9 c -1.8,-1.5 -3.9,-2.4 -6.8,-2.4 -5.8,0 -9.7,4.2 -9.7,10.5 0,6.3 3.9,10.5 9.8,10.5 3.2,0 5.9,-1 7.9,-3.1 l 5,5.8 c -3.3,3.3 -8,4.8 -13.2,4.8 -11.1,-0.1 -18.6,-7.3 -18.6,-18.1 z m -14.5,-27.83970302 h 8.8 V 4.685952 h -8.8 z m 0,10.83970302 h 8.8 v 35.1 h -8.8 z m -61.5,13.1 v 22 h -8.5 l -0.2,-5.1 c -2.3,3.1 -6.3,5.1 -10.6,5.1 -7.2,0 -12.1,-4.3 -12.1,-10.7 0,-6.7 5.9,-11 14.8,-11 2.4,0 5,0.3 7.7,0.8 v -0.6 c 0,-4.6 -3.1,-7.4 -8.4,-7.4 -3.3,0 -5.9,1 -8.1,2.8 l -3.7,-5.3 c 3.7,-3 8.1,-4.5 14.2,-4.5 8.9,0 14.9,5.3 14.9,13.9 z m -8.8,6.9 c -2.3,-0.4 -4.6,-0.7 -6.6,-0.7 -4.1,0 -6.8,1.9 -6.8,4.9 0,2.8 1.9,4.7 5.4,4.7 4.2,0 8,-3.2 8,-8.9 z m -28.2,6.45 v 7.1 c -2.6,1.1 -5.7,1.6 -8.8,1.6 -6.4000002,0 -10.7000002,-4.4 -10.7000002,-10.9 v -17.3 h -5.7 v -7.4 h 5.7 V -0.51404802 h 8.8 V 9.975655 H 19.55952 v 7.4 H 9.2595198 v 15.4 c 0,3.1 1.9000002,5.2 4.8000002,5.2 2,0 4,-0.3 6,-1.1 z"
     transform="translate(5.1404802,0.51404802)" /></svg>
